<svg id="Layer_5" enable-background="new 0 0 64 64" height="512" viewBox="0 0 64 64" width="512" xmlns="http://www.w3.org/2000/svg"><g><path d="m50 22c1.302 0 2.402-.839 2.816-2h10.184v-16h-10.184c-.414-1.161-1.514-2-2.816-2h-4c-1.379 0-2.532.941-2.881 2.211l-2.549-1.699c-1.483-.989-3.209-1.512-4.992-1.512h-15.578c-1.103 0-2 .897-2 2 0 .732.212 1.409.556 2h-4.556c-1.654 0-3 1.346-3 3 0 .352.072.686.184 1h-1.184c-1.654 0-3 1.346-3 3s1.346 3 3 3h1.184c-.112.314-.184.648-.184 1 0 1.383.945 2.539 2.22 2.884-.139.346-.22.721-.22 1.116 0 1.654 1.346 3 3 3h19.578c1.783 0 3.509-.523 4.992-1.512l2.548-1.699c.35 1.27 1.503 2.211 2.882 2.211h1v2.101c-2.279.465-4 2.484-4 4.899s1.721 4.434 4 4.899v2.202c-2.279.465-4 2.484-4 4.899 0 2.211 1.452 4.069 3.445 4.727-.544.768-1.435 1.273-2.445 1.273h-3c0-1.654-1.346-3-3-3h-1.184c-.414-1.161-1.514-2-2.816-2h-4.261c-2.32-5.291-7.601-9-13.739-9-8.271 0-15 6.729-15 15s6.729 15 15 15c6.138 0 11.419-3.709 13.739-9h4.261c1.302 0 2.402-.839 2.816-2h1.184c1.654 0 3-1.346 3-3h3c2.07 0 3.849-1.265 4.608-3.062 2.468-.304 4.392-2.389 4.392-4.938 0-2.414-1.721-4.434-4-4.899v-2.202c2.279-.465 4-2.484 4-4.899s-1.721-4.434-4-4.899v-2.101zm-34 39c-7.168 0-13-5.832-13-13s5.832-13 13-13 13 5.832 13 13-5.832 13-13 13zm19-10c0 .552-.448 1-1 1h-3.558c.354-1.276.558-2.613.558-4s-.204-2.724-.558-4h3.558c.552 0 1 .448 1 1zm4-2c0 .552-.448 1-1 1h-1v-4h1c.552 0 1 .448 1 1zm12-8c0 1.302-.839 2.402-2 2.816v-1.816h-2v1.816c-1.161-.414-2-1.514-2-2.816s.839-2.402 2-2.816v1.816h2v-1.816c1.161.414 2 1.514 2 2.816zm0-12c0 1.302-.839 2.402-2 2.816v-1.816h-2v1.816c-1.161-.414-2-1.514-2-2.816s.839-2.402 2-2.816v1.816h2v-1.816c1.161.414 2 1.514 2 2.816zm10-11h-8v-12h8zm-52-6c0-.551.448-1 1-1h4 12v2h-12-4c-.552 0-1-.449-1-1zm5 3h12v2h-10-2c-.552 0-1-.449-1-1s.448-1 1-1zm25.461 4.824c-1.153.769-2.496 1.176-3.883 1.176h-19.578c-.552 0-1-.449-1-1s.448-1 1-1h10.25c.215.634.556 1.221 1.043 1.708l1.414-1.415c-.456-.456-.707-1.062-.707-1.707v-7.172c0-.645.251-1.251.707-1.707l-1.414-1.415c-.487.487-.828 1.074-1.043 1.708h-12.25c-.552 0-1-.449-1-1s.448-1 1-1h8 7.586l.949.95c1.323 1.322 3.081 2.05 4.95 2.05h1.515v-2h-1.515c-1.335 0-2.591-.52-3.536-1.464l-1.535-1.536h-.414-8c-1.103 0-2-.897-2-2h15.578c1.387 0 2.729.407 3.883 1.176l3.539 2.359v10.93zm5.539-.824v-14c0-.551.448-1 1-1h4c.552 0 1 .449 1 1v14c0 .551-.448 1-1 1h-4c-.552 0-1-.449-1-1z"/><path d="m17 45c.552 0 1 .448 1 1h2c0-1.654-1.346-3-3-3v-2h-2v2h-3v3c0 1.654 1.346 3 3 3h2c.552 0 1 .448 1 1v1h-3c-.552 0-1-.448-1-1h-2c0 1.654 1.346 3 3 3v2h2v-2h3v-3c0-1.654-1.346-3-3-3h-2c-.552 0-1-.448-1-1v-1z"/></g></svg>