<svg height="511pt" viewBox="0 -33 511.99999 511" width="511pt" xmlns="http://www.w3.org/2000/svg"><path d="m461.835938 354.660156h30.785156c10.6875 0 19.378906-8.691406 19.378906-19.378906 0-10.683594-8.691406-19.375-19.378906-19.375h-162.964844c-4.140625 0-7.5 3.359375-7.5 7.5s3.359375 7.5 7.5 7.5h162.964844c2.414062 0 4.378906 1.960938 4.378906 4.375s-1.964844 4.378906-4.378906 4.378906h-266.21875c-8.140625 0-15.558594-4.476562-19.355469-11.683594-3.792969-7.203124-3.292969-15.847656 1.304687-22.5625l10.875-15.878906 11.558594-1.378906-15.214844 22.207031c-2.800781 4.09375-3.089843 9.152344-.78125 13.535157 2.316407 4.386718 6.660157 7.007812 11.613282 7.007812h73.253906c4.144531 0 7.5-3.359375 7.5-7.5s-3.355469-7.5-7.5-7.5h-69.699219l17.460938-25.480469c.972656-1.417969 1.734375-2.941406 2.292969-4.527343l169.914062-20.289063 32.289062-3.847656c24.328126-2.914063 42.671876-23.582031 42.671876-48.074219v-27.625c0-4.140625-3.359376-7.5-7.5-7.5-4.140626 0-7.5 3.359375-7.5 7.5v3.628906l-91.199219 6.03125-3.757813-44.183594 94.957032-.570312v4.976562c0 4.140626 3.359374 7.5 7.5 7.5 4.140624 0 7.5-3.359374 7.5-7.5v-12.476562c0-.03125.003906-.058594.003906-.089844 0-.023437-.003906-.046875-.003906-.070312v-41.125c0-10.75-8.40625-19.613282-19.136719-20.179688l-218.3125-11.5625c-.089844-.003906-.179688-.011718-.269531-.011718l-108.554688-5.75-1.6875-7.59375c-2.699219-12.164063-12.363281-21.476563-24.617188-23.722657l-24.152343-4.425781 1.117187-6.335938c.410156-2.335937-.109375-4.691406-1.46875-6.628906-1.359375-1.941406-3.394531-3.234375-5.726562-3.648437l-65.066406-11.472657c-5.984376-1.054687-12.023438.28125-17.003907 3.769532-4.980469 3.488281-8.304687 8.703125-9.359375 14.691406-2.179687 12.359375 6.101563 24.183594 18.460938 26.363281l65.066406 11.472657c.519531.089843 1.035156.136718 1.542969.136718 4.21875 0 7.96875-3.03125 8.730469-7.328125l1.101562-6.25 24.054688 4.40625c6.3125 1.15625 11.289062 5.953125 12.679687 12.21875l41.765625 188.25c0 .003907.003906.011719.003906.015625l6.421875 28.945313c1.890625 8.519531 9.367188 14.386719 17.882813 14.386719.460937 0 .921875-.023438 1.386718-.058594l-3.46875 5.066406c-7.753906 11.320312-8.597656 25.894531-2.199218 38.03125 6.402344 12.144531 18.902344 19.6875 32.625 19.6875h8.425781v3.917969c-20.777344 3.574219-36.640625 21.710937-36.640625 43.492187 0 24.339844 19.800781 44.140625 44.140625 44.140625 24.335937 0 44.140625-19.800781 44.140625-44.140625 0-10.875-3.992188-21.324218-11.238281-29.421875-2.761719-3.085937-7.5-3.351562-10.589844-.589843-3.085937 2.761718-3.351563 7.503906-.585937 10.589843 4.78125 5.34375 7.414062 12.242188 7.414062 19.421875 0 16.070313-13.074219 29.140625-29.140625 29.140625s-29.140625-13.070312-29.140625-29.140625c0-13.476562 9.195312-24.839844 21.640625-28.15625v8.445313c-7.945313 3.03125-13.613281 10.714843-13.613281 19.710937 0 11.644532 9.46875 21.117188 21.113281 21.117188s21.113281-9.472656 21.113281-21.117188c0-8.996094-5.667968-16.675781-13.613281-19.710937v-27.695313h197.007813v3.917969c-20.777344 3.570313-36.640626 21.707031-36.640626 43.488281 0 24.339844 19.800782 44.144532 44.140626 44.144532 24.339843 0 44.140624-19.804688 44.140624-44.144532 0-10.875-3.988281-21.324218-11.234374-29.421875-2.761719-3.085937-7.503907-3.347656-10.589844-.585937-3.085938 2.761718-3.351563 7.5-.589844 10.589844 4.78125 5.34375 7.417969 12.238281 7.417969 19.417968 0 16.070313-13.074219 29.144532-29.140625 29.144532-16.070313 0-29.144532-13.074219-29.144532-29.144532 0-13.472656 9.199219-24.839844 21.644532-28.15625v8.445313c-7.949219 3.03125-13.617188 10.714843-13.617188 19.710937 0 11.644532 9.472656 21.117188 21.117188 21.117188 11.640625 0 21.113281-9.472656 21.113281-21.117188 0-8.996094-5.667969-16.675781-13.613281-19.710937v-27.695313zm-440.421876-323.757812c-4.214843-.742188-7.035156-4.773438-6.292968-8.984375.359375-2.042969 1.492187-3.820313 3.1875-5.011719 1.320312-.921875 2.855468-1.402344 4.433594-1.402344.453124 0 .910156.039063 1.363281.121094l59.027343 10.40625-2.695312 15.28125zm272.320313 234.632812-7.554687-48.027344 88.507812-5.851562 3.722656 43.769531zm185.851563-60.808594v8.957032c0 16.90625-12.664063 31.171875-29.449219 33.179687l-56.824219 6.785157-3.65625-42.980469zm-106.171876-8.015624-89.574218 5.917968-7.9375-50.441406 93.679687-.558594zm-205.542968-43.875 92.863281-.558594 8.078125 51.347656-88.378906 5.839844zm196.566406-61.691407 3.871094 45.488281-94.761719.566407-8.070313-51.296875zm115.148438 11.035157v33.789062l-96.230469.574219-3.792969-44.597657 95.09375 5.035157c2.765625.148437 4.929688 2.429687 4.929688 5.199219zm-229.421876-17.085938 8.214844 52.199219-93.832031.5625-12.859375-57.976563zm-55.347656 189.199219-11.09375-50.011719 87.429688-5.78125 7.679687 48.8125-36.347656 4.339844c-.023437.003906-.046875.003906-.066406.003906l-28.347657 3.386719c-.015624 0-.03125.003906-.046874.007812l-15.523438 1.851563c-1.722656.203125-3.304688-.914063-3.683594-2.609375zm47.507813 133.890625c-3.371094 0-6.113281-2.746094-6.113281-6.117188s2.742187-6.113281 6.113281-6.113281c3.375 0 6.117187 2.742187 6.117187 6.113281s-2.746094 6.117188-6.117187 6.117188zm212.011719 0c-3.371094 0-6.117188-2.746094-6.117188-6.117188s2.746094-6.113281 6.117188-6.113281c3.371093 0 6.113281 2.742187 6.113281 6.113281s-2.742188 6.117188-6.113281 6.117188zm0 0"/></svg>